<?xml version="1.0" standalone="no"?>
<!DOCTYPE svg PUBLIC "-//W3C//DTD SVG 20010904//EN"
 "http://www.w3.org/TR/2001/REC-SVG-20010904/DTD/svg10.dtd">
<svg version="1.0" xmlns="http://www.w3.org/2000/svg"
 width="512.000000pt" height="512.000000pt" viewBox="0 0 512.000000 512.000000"
 preserveAspectRatio="xMidYMid meet">

<g transform="translate(0.000000,512.000000) scale(0.100000,-0.100000)"
fill="#000000" stroke="none">
<path d="M303 5047 c-95 -40 -160 -95 -197 -167 -38 -74 -61 -141 -77 -220 -7
-38 -10 -469 -9 -1410 0 -745 -4 -1546 -10 -1781 -20 -853 16 -1139 166 -1299
138 -148 341 -172 1119 -131 695 36 1098 44 1595 31 818 -22 1202 -25 1296
-10 129 21 236 70 294 137 18 20 47 67 64 103 l30 65 8 270 c5 149 6 637 2
1087 l-6 816 32 40 c17 22 97 98 177 169 223 198 294 296 294 407 0 81 -31
130 -184 287 -139 144 -188 177 -272 186 -42 5 -43 6 -49 51 -10 75 -7 216 10
422 40 496 12 708 -113 841 -51 54 -93 80 -182 110 -54 18 -128 19 -1996 18
l-1940 0 -52 -22z m422 -53 c-11 -9 -33 -22 -50 -30 -30 -15 -29 -15 5 15 19
17 42 30 50 30 11 0 10 -4 -5 -15z m350 7 c-24 -23 -468 -272 -480 -269 -8 2
61 65 153 140 l167 138 84 0 c52 0 81 -4 76 -9z m304 5 c-2 -2 -114 -68 -249
-145 -135 -78 -236 -133 -225 -123 11 11 94 77 184 146 l165 126 64 0 c36 0
63 -2 61 -4z m251 0 c0 -3 -323 -193 -365 -214 -26 -13 21 25 145 117 120 89
140 100 178 101 23 0 42 -2 42 -4z m315 -5 c-24 -23 -448 -262 -461 -259 -7 2
61 63 153 136 l166 132 75 0 c47 0 72 -4 67 -9z m231 0 c-3 -5 -52 -35 -108
-67 -57 -32 -119 -67 -138 -78 -54 -30 -25 -6 90 78 71 51 114 76 133 76 16 0
26 -4 23 -9z m1924 5 c0 -3 -516 -304 -555 -324 -22 -11 28 31 200 170 99 80
187 147 195 151 17 6 160 9 160 3z m-3570 -10 c0 -2 -46 -30 -102 -62 -57 -31
-114 -64 -128 -73 -24 -15 -25 -15 -10 4 8 11 36 46 63 78 l49 57 64 0 c35 0
64 -2 64 -4z m1885 -9 c-34 -24 -355 -207 -361 -207 -4 0 60 50 142 110 137
102 152 110 193 110 41 0 44 -1 26 -13z m240 -1 c-11 -7 -69 -41 -130 -76 -60
-34 -126 -72 -145 -83 -55 -32 -24 -6 104 87 97 69 127 86 155 86 33 0 34 -1
16 -14z m274 10 c-4 -3 -333 -193 -354 -204 -29 -15 34 36 144 117 113 83 129
91 170 91 24 0 42 -2 40 -4z m300 0 c-9 -9 -492 -286 -494 -284 -2 2 79 67
179 145 l181 142 69 0 c38 1 67 -1 65 -3z m271 0 c0 -2 -80 -50 -177 -106 -98
-57 -194 -112 -213 -123 -56 -32 -25 -7 139 117 147 111 156 116 202 116 27 0
49 -2 49 -4z m259 0 c-4 -3 -334 -194 -354 -204 -25 -13 14 18 137 109 120 89
137 98 177 99 24 0 42 -2 40 -4z m501 -26 c8 -5 12 -11 10 -13 -14 -11 -273
-157 -275 -155 -4 4 236 178 244 178 3 0 13 -4 21 -10z m119 -87 c10 -18 15
-14 -216 -149 -24 -14 -43 -23 -43 -20 0 8 231 186 241 186 4 0 12 -8 18 -17z
m-3944 -162 c-10 -9 -156 -129 -237 -195 l-48 -38 0 39 0 39 143 82 c138 79
161 92 142 73z m2985 -25 c-8 -7 -97 -79 -197 -160 l-183 -146 -82 0 -83 0
150 87 c83 47 206 119 275 159 130 76 144 83 120 60z m-2150 0 c0 -3 -85 -72
-190 -156 l-190 -151 -72 3 -73 3 260 152 c284 166 265 155 265 149z m1260
-31 c0 -2 -79 -65 -175 -140 l-174 -136 -65 3 -65 3 237 137 c254 147 242 140
242 133z m-1917 -43 c-26 -21 -105 -82 -175 -135 -126 -97 -126 -97 -184 -97
-31 0 -54 3 -50 8 11 11 440 260 449 261 5 1 -13 -16 -40 -37z m2021 -98
c-185 -141 -175 -136 -230 -132 l-47 3 199 117 c109 64 203 117 208 117 5 1
-54 -47 -130 -105z m1206 82 c-8 -8 -73 -59 -145 -115 -129 -100 -130 -101
-185 -101 l-55 0 105 61 c58 34 146 86 195 115 95 56 108 63 85 40z m-2170 0
c0 -2 -65 -52 -145 -110 -135 -100 -147 -107 -186 -104 -41 3 -40 4 142 110
194 113 189 110 189 104z m-925 -87 c-169 -126 -178 -131 -221 -127 -37 3 -33
6 136 105 96 55 179 102 185 102 5 1 -40 -36 -100 -80z m1297 -9 c-167 -123
-165 -122 -208 -118 -37 3 -33 6 136 105 96 56 179 102 184 102 5 1 -46 -39
-112 -89z m928 76 c0 -3 -59 -48 -131 -100 -116 -85 -136 -96 -173 -96 -29 1
-37 3 -26 10 32 19 325 189 328 190 1 0 2 -2 2 -4z m569 -10 c-2 -2 -60 -45
-128 -95 -101 -74 -131 -91 -160 -91 -21 0 -31 4 -26 9 11 10 307 181 314 181
2 0 2 -2 0 -4z m-1679 -10 c0 -2 -54 -43 -120 -91 -100 -72 -125 -86 -152 -83
-29 3 -18 11 117 90 160 93 155 90 155 84z m-525 -25 c-6 -4 -56 -41 -112 -80
-78 -55 -109 -72 -130 -69 -24 3 -8 15 107 80 130 75 155 88 135 69z m3135
-11 c0 -5 -5 -10 -11 -10 -5 0 -7 5 -4 10 3 6 8 10 11 10 2 0 4 -4 4 -10z
m-166 -52 c-68 -83 -76 -88 -128 -88 l-51 0 90 54 c100 60 117 67 89 34z
m-314 -58 c-19 -17 -43 -30 -55 -30 -14 0 -4 10 30 30 63 37 69 37 25 0z m460
-15 c0 -9 -9 -15 -22 -15 -22 1 -23 1 -4 15 25 19 26 19 26 0z m10 -455 l0
-361 -147 -143 c-82 -79 -152 -141 -157 -138 -5 3 -5 63 0 146 5 78 9 193 9
256 0 100 -3 121 -23 162 -14 27 -38 56 -57 68 l-33 21 -1736 -1 c-1461 0
-1741 -2 -1769 -14 -41 -17 -74 -57 -86 -105 -5 -20 -12 -176 -16 -348 -6
-295 -5 -314 13 -355 33 -73 59 -90 154 -97 46 -3 802 -6 1680 -6 879 0 1598
-3 1598 -7 0 -11 -227 -235 -426 -420 -308 -287 -470 -482 -572 -689 -69 -140
-105 -254 -123 -391 -10 -80 -9 -98 4 -130 35 -83 135 -88 372 -18 397 117
531 212 946 672 93 102 213 227 266 278 l98 91 2 -128 c1 -70 7 -441 13 -823
9 -527 9 -730 0 -838 -19 -234 -58 -350 -145 -431 -131 -120 -319 -138 -1060
-102 -908 45 -1592 54 -2211 29 -170 -7 -376 -13 -459 -13 -135 0 -157 2 -215
24 -88 34 -177 121 -209 205 -32 87 -44 200 -31 312 6 61 10 703 10 1874 l0
1780 2155 0 2155 0 0 -360z m-3670 -64 c0 -7 -181 -109 -185 -104 -2 2 7 27
20 56 l24 52 71 0 c38 0 70 -2 70 -4z m256 -3 c-15 -15 -221 -131 -225 -127
-3 2 27 33 65 69 65 60 72 64 118 65 27 0 46 -3 42 -7z m293 3 c-2 -3 -90 -54
-194 -114 -177 -103 -231 -129 -174 -83 13 10 74 60 134 110 l110 90 64 1 c35
0 62 -2 60 -4z m186 -5 c-16 -14 -125 -73 -125 -67 0 10 104 76 119 76 9 0 11
-3 6 -9z m314 5 c-11 -11 -632 -366 -635 -363 -2 2 108 85 244 185 l247 182
74 0 c41 0 72 -2 70 -4z m171 -1 c0 -2 -10 -9 -22 -15 -22 -11 -22 -10 -4 4
21 17 26 19 26 11z m255 -8 c-47 -32 -497 -288 -501 -285 -2 2 60 49 138 104
285 200 275 194 332 194 45 0 48 -1 31 -13z m180 -3 c-27 -21 -95 -56 -95 -49
0 8 92 65 104 65 6 0 2 -8 -9 -16z m310 3 c-49 -33 -618 -358 -621 -354 -4 4
438 330 480 354 12 7 52 12 91 13 61 0 67 -2 50 -13z m185 8 c0 -2 -10 -9 -22
-15 -22 -11 -22 -10 -4 4 21 17 26 19 26 11z m335 -4 c-17 -16 -708 -412 -712
-408 -2 3 120 97 272 211 l276 206 86 0 c53 0 83 -4 78 -9z m304 4 c-12 -12
-612 -355 -616 -352 -3 4 348 261 452 332 31 20 50 25 103 25 36 0 63 -2 61
-5z m191 1 c0 -2 -21 -16 -47 -31 -27 -15 -63 -36 -80 -47 -59 -35 -35 -10 34
37 59 39 93 54 93 41z m189 -5 c13 -9 -4 -20 -238 -155 -35 -20 -65 -35 -67
-33 -4 3 277 197 286 197 3 0 11 -4 19 -9z m83 -122 c4 -24 0 -34 -18 -46 -65
-42 -430 -250 -433 -246 -3 2 4 10 15 17 10 8 108 82 218 165 109 83 202 148
206 146 4 -3 10 -19 12 -36z m-3412 -67 c0 -5 -13 -18 -30 -30 -23 -18 -30
-19 -30 -8 0 9 12 22 28 30 32 18 32 18 32 8z m120 -86 c-37 -34 -179 -146
-185 -146 -3 0 -5 12 -3 27 2 22 19 36 93 80 89 51 123 66 95 39z m3300 -9 c0
-19 -19 -34 -102 -82 -124 -71 -126 -72 -110 -54 19 20 196 157 205 158 4 1 7
-9 7 -22z m-1560 -72 c0 -3 -123 -97 -274 -210 l-274 -206 -88 3 -89 3 360
208 c198 114 361 207 362 207 2 0 3 -2 3 -5z m2154 -14 c16 -6 6 -15 -56 -49
-41 -23 -79 -42 -82 -42 -4 0 12 23 35 50 42 50 61 58 103 41z m-1164 -25 c-8
-7 -124 -95 -257 -195 l-243 -181 -87 0 -87 0 334 194 c317 184 374 215 340
182z m-2480 -10 c-45 -42 -403 -295 -411 -291 -5 4 -9 19 -9 34 0 25 17 37
208 148 198 116 244 139 212 109z m929 0 c-2 -2 -116 -86 -253 -185 l-249
-181 -70 0 c-39 0 -67 3 -63 7 12 12 621 362 630 363 5 0 7 -2 5 -4z m790 -19
c-2 -2 -111 -81 -243 -175 l-238 -172 -71 0 -71 0 309 179 c171 98 312 177
314 175 2 -2 2 -5 0 -7z m1316 -46 c-5 -24 -20 -38 -73 -68 -37 -21 -71 -39
-77 -41 -5 -2 26 30 70 72 44 41 82 73 83 71 2 -2 1 -17 -3 -34z m705 19 c0
-5 -15 -17 -32 -26 l-33 -17 24 27 c25 27 41 33 41 16z m-3400 -34 c-8 -8
-102 -75 -209 -150 -186 -131 -195 -136 -244 -136 -28 0 -47 3 -43 7 8 9 499
292 506 293 2 0 -2 -6 -10 -14z m-740 -35 c0 -5 -7 -12 -16 -15 -14 -5 -15 -4
-4 9 14 17 20 19 20 6z m4249 -25 l22 -23 -97 -57 c-53 -31 -99 -55 -102 -52
-5 6 137 156 148 156 4 0 17 -11 29 -24z m-1460 -116 c-143 -109 -144 -110
-199 -110 -42 1 -51 3 -38 11 209 121 365 209 372 209 5 0 -56 -49 -135 -110z
m330 43 c-35 -33 -87 -80 -116 -106 l-51 -48 -73 3 -74 3 185 106 c102 59 187
105 189 104 1 -2 -26 -30 -60 -62z m-794 37 c-4 -6 -67 -51 -141 -101 -105
-70 -142 -89 -164 -87 -24 3 -4 17 138 100 92 53 168 97 170 97 2 1 0 -4 -3
-9z m1383 -83 c30 -30 41 -49 36 -60 -5 -13 -2 -16 11 -11 11 5 29 -6 56 -32
37 -36 38 -39 21 -57 -16 -19 -16 -19 5 -6 22 13 29 8 150 -114 l127 -127 -89
-90 -90 -90 -222 222 c-123 123 -223 227 -223 233 0 10 160 175 170 175 3 0
25 -19 48 -43z m250 -14 c-29 -29 -40 -35 -50 -25 -6 6 -10 13 -7 15 20 16 76
47 84 47 5 0 -7 -17 -27 -37z m381 8 c12 -22 10 -24 -74 -71 l-60 -33 55 60
c30 33 58 61 62 62 4 0 12 -8 17 -18z m-2442 -57 c-38 -25 -75 -44 -84 -42
-14 3 122 87 142 88 5 0 -21 -21 -58 -46z m-1277 22 c0 -9 -100 -68 -110 -64
-6 2 13 17 42 35 51 30 68 37 68 29z m2785 -36 c-20 -21 -38 -30 -59 -30 -30
0 -30 1 19 30 64 37 76 37 40 0z m-218 -5 c-24 -22 -67 -34 -67 -20 0 6 72 44
85 44 6 0 -3 -11 -18 -24z m-3091 -10 c-11 -8 -24 -15 -30 -15 -5 0 -1 7 10
15 10 8 24 14 29 14 6 0 1 -6 -9 -14z m919 -5 c-3 -5 -12 -10 -18 -10 -7 0 -6
4 3 10 19 12 23 12 15 0z m3055 -35 c-31 -31 -50 -37 -50 -15 0 8 65 48 79 50
3 0 -10 -16 -29 -35z m171 -62 c-6 -10 -26 -36 -45 -58 l-35 -40 -20 20 -21
21 62 37 c73 43 72 42 59 20z m-1093 -650 c-244 -244 -446 -443 -451 -443 -10
0 -177 166 -177 176 0 5 199 208 442 451 l443 443 92 -92 93 -93 -442 -442z
m262 -268 l-445 -445 -95 95 -95 95 445 445 445 445 95 -95 95 -95 -445 -445z
m-715 -344 c94 -94 171 -173 173 -175 5 -6 -243 -101 -353 -135 -54 -17 -116
-31 -136 -31 -116 0 -112 111 16 463 l47 127 42 -38 c22 -22 118 -116 211
-211z"/>
<path d="M491 2657 c-75 -38 -82 -37 1328 -35 1375 3 1397 4 1377 37 -11 17
-2672 15 -2705 -2z"/>
<path d="M463 2234 c-16 -26 -16 -27 6 -45 22 -18 64 -19 1152 -19 1116 0
1129 0 1149 20 23 23 25 41 8 58 -9 9 -279 12 -1155 12 l-1143 0 -17 -26z"/>
<path d="M835 1820 c-55 -5 -152 -17 -215 -27 l-115 -18 1016 -3 c890 -2 1021
0 1053 13 20 8 36 19 36 23 0 4 -172 7 -382 7 -211 0 -588 3 -838 7 -250 4
-500 3 -555 -2z"/>
<path d="M1240 1407 c-3 -3 -84 -8 -180 -11 -96 -3 -207 -8 -246 -12 -41 -4
-98 -2 -136 5 -54 9 -71 9 -99 -4 -60 -25 -91 -52 -112 -96 -19 -39 -21 -61
-21 -199 2 -325 11 -509 27 -534 19 -28 82 -58 156 -76 56 -13 431 -8 661 9
60 4 113 3 124 -2 10 -5 34 -6 54 -2 19 4 67 7 107 8 90 2 141 32 176 104 22
44 24 59 23 203 0 85 -3 236 -7 335 -7 173 -8 181 -31 200 -43 37 -91 60 -126
62 -202 10 -366 14 -370 10z m257 -55 c18 -6 -22 -33 -209 -140 -126 -73 -232
-132 -234 -130 -1 2 50 44 114 93 64 50 140 109 168 132 61 49 105 61 161 45z
m-292 -25 c-39 -27 -135 -78 -135 -73 0 14 108 86 130 86 24 0 24 -1 5 -13z
m-415 -1 c0 -6 -182 -108 -185 -104 -2 2 7 27 19 55 l21 53 73 0 c39 0 72 -2
72 -4z m209 0 c-2 -1 -26 -15 -54 -31 l-50 -27 33 31 c18 17 42 31 54 31 12 0
19 -2 17 -4z m619 -58 c-3 -7 -75 -53 -159 -101 -85 -49 -147 -82 -139 -73 8
8 76 58 150 110 123 87 163 105 148 64z m32 -117 c0 -14 -29 -36 -102 -79
-118 -68 -156 -88 -145 -76 14 15 232 173 240 173 4 1 7 -8 7 -18z m0 -145 c0
-17 -10 -25 -95 -71 -80 -43 -77 -37 15 34 70 54 80 58 80 37z m-1060 -10 c0
-2 -8 -10 -17 -17 -16 -13 -17 -12 -4 4 13 16 21 21 21 13z m219 0 c-2 -2 -58
-45 -124 -96 -117 -90 -120 -92 -123 -65 -2 15 -2 28 0 30 13 11 235 135 242
135 5 0 7 -2 5 -4z m841 -126 c0 -5 -10 -15 -22 -21 -23 -12 -23 -12 -4 10 21
23 26 26 26 11z m-813 -17 c-4 -3 -62 -45 -129 -93 -98 -69 -125 -85 -131 -73
-5 8 -6 17 -3 20 7 7 260 153 265 153 2 0 1 -3 -2 -7z m-28 -183 c-148 -106
-181 -122 -186 -90 -2 10 53 46 160 107 89 51 166 93 171 93 5 0 -60 -50 -145
-110z m306 52 c-6 -5 -68 -53 -139 -106 -124 -94 -130 -97 -175 -94 l-46 3
175 102 c156 91 214 120 185 95z m525 -47 c-21 -26 -31 -16 -13 11 9 15 19 21
21 15 2 -6 -2 -18 -8 -26z m-110 19 c0 -3 -24 -37 -52 -74 l-53 -69 -80 -1
-80 0 105 61 c58 34 114 67 125 75 22 14 35 17 35 8z m-310 -48 c0 -2 -29 -27
-65 -56 -49 -39 -71 -51 -92 -48 -25 3 -17 9 62 55 95 55 95 55 95 49z m430
-86 c0 -16 -7 -20 -35 -20 -42 0 -44 5 -7 24 36 20 42 20 42 -4z"/>
<path d="M2142 1395 c-66 -15 -82 -29 -61 -50 22 -22 371 -27 414 -5 45 23 44
47 -2 59 -52 15 -286 12 -351 -4z"/>
<path d="M2145 970 c-12 -4 -26 -14 -33 -22 -41 -50 222 -64 948 -50 311 6
647 9 747 5 194 -6 233 0 254 40 8 15 8 22 -2 28 -18 11 -1887 10 -1914 -1z"/>
<path d="M3319 556 c-2 -2 -233 -7 -514 -10 -463 -6 -659 -15 -689 -34 -6 -3
5 -10 24 -14 64 -15 980 -30 1419 -24 387 5 436 7 460 22 l26 18 -35 14 c-20
8 -99 18 -185 23 -155 9 -498 12 -506 5z"/>
</g>
</svg>
