<?xml version="1.0" standalone="no"?>
<!DOCTYPE svg PUBLIC "-//W3C//DTD SVG 20010904//EN"
 "http://www.w3.org/TR/2001/REC-SVG-20010904/DTD/svg10.dtd">
<svg version="1.0" xmlns="http://www.w3.org/2000/svg"
 width="16.000000pt" height="16.000000pt" viewBox="0 0 16.000000 16.000000"
 preserveAspectRatio="xMidYMid meet">

<g transform="translate(0.000000,16.000000) scale(0.100000,-0.100000)"
fill="#000000" stroke="none">
<path d="M4 147 c-3 -8 -4 -36 -2 -63 2 -40 7 -50 23 -52 11 -2 28 -11 38 -20
15 -14 19 -14 35 0 9 9 26 18 37 20 17 3 20 11 20 63 l0 60 -73 3 c-55 2 -74
0 -78 -11z m146 -52 c0 -45 -3 -55 -17 -55 -9 0 -25 -7 -35 -17 -17 -15 -19
-15 -36 0 -10 10 -26 17 -35 17 -14 0 -17 10 -17 55 l0 55 70 0 70 0 0 -55z"/>
<path d="M48 103 c17 -2 47 -2 65 0 17 2 3 4 -33 4 -36 0 -50 -2 -32 -4z"/>
<path d="M48 83 c17 -2 47 -2 65 0 17 2 3 4 -33 4 -36 0 -50 -2 -32 -4z"/>
</g>
</svg>
